<svg xmlns="http://www.w3.org/2000/svg" viewBox="0 0 24 24" width="24" height="24">
  
<g fill="none" stroke="#111" stroke-width="1.8" stroke-linecap="round" stroke-linejoin="round">
  <path d="M12 3v18"/>
  <path d="M12 6c-2 0-3 1.5-3 3 2 0 3-1.5 3-3Z"/>
  <path d="M12 10c-2 0-3 1.5-3 3 2 0 3-1.5 3-3Z"/>
  <path d="M12 14c-2 0-3 1.5-3 3 2 0 3-1.5 3-3Z"/>
  <path d="M12 6c2 0 3 1.5 3 3-2 0-3-1.5-3-3Z"/>
  <path d="M12 10c2 0 3 1.5 3 3-2 0-3-1.5-3-3Z"/>
  <path d="M12 14c2 0 3 1.5 3 3-2 0-3-1.5-3-3Z"/>
</g>

</svg>
